<?xml version="1.0" standalone="no"?>
<!DOCTYPE svg PUBLIC "-//W3C//DTD SVG 20010904//EN"
 "http://www.w3.org/TR/2001/REC-SVG-20010904/DTD/svg10.dtd">
<svg version="1.0" xmlns="http://www.w3.org/2000/svg"
 width="512.000000pt" height="512.000000pt" viewBox="0 0 512.000000 512.000000"
 preserveAspectRatio="xMidYMid meet">
<metadata>
Created by potrace 1.14, written by Peter Selinger 2001-2017
</metadata>
<g transform="translate(0.000000,512.000000) scale(0.100000,-0.100000)"
fill="#000000" stroke="none">
<path d="M2697 5114 c-1 -1 -40 -4 -87 -8 -83 -6 -120 -10 -190 -22 -19 -4
-48 -8 -65 -11 -16 -2 -55 -11 -85 -18 -30 -8 -66 -16 -80 -19 -173 -33 -557
-196 -702 -297 -14 -11 -29 -19 -32 -19 -4 0 -48 -30 -99 -66 -362 -261 -625
-563 -817 -939 -126 -247 -230 -565 -256 -786 -3 -30 -8 -56 -10 -59 -7 -13
-19 -215 -19 -335 0 -118 10 -284 20 -337 3 -11 7 -46 10 -77 4 -31 8 -63 10
-71 2 -8 7 -46 10 -85 3 -38 8 -86 11 -105 7 -53 7 -307 -1 -378 -10 -102 -49
-197 -105 -262 -12 -14 -31 -36 -42 -50 -12 -14 -54 -61 -95 -106 l-73 -81
148 -57 c228 -89 348 -114 528 -111 116 3 151 7 254 32 72 17 221 76 262 105
14 10 29 18 32 18 3 0 35 21 71 46 l66 45 97 -6 c53 -4 108 -8 122 -10 14 -2
52 -7 85 -10 360 -40 792 -160 1209 -337 128 -54 452 -212 551 -268 200 -113
290 -166 410 -243 77 -49 174 -111 215 -137 l75 -47 140 1 140 1 -1 30 c-3 47
-15 168 -19 185 -2 8 -7 53 -10 100 -4 47 -9 92 -10 102 -2 9 -6 53 -10 98 -4
45 -8 90 -10 99 -2 10 -6 55 -10 102 -4 46 -8 86 -10 89 -2 3 -6 41 -10 85 -4
44 -8 94 -10 110 -2 17 -6 59 -10 95 -4 36 -8 81 -10 100 -2 19 -6 64 -10 100
-6 65 -9 89 -20 185 -13 115 -15 128 -17 130 -4 3 -707 215 -730 220 -44 9
-134 64 -180 109 -29 29 -63 76 -79 111 -29 61 -82 225 -75 232 3 4 97 -21
586 -154 191 -52 418 -112 441 -118 15 -3 17 22 14 288 -3 328 -13 412 -70
584 -39 116 -86 215 -157 325 l-50 78 35 47 c71 98 200 206 327 276 137 75
369 148 520 161 36 4 88 9 115 12 87 10 109 12 143 13 17 1 32 5 32 11 0 8
-70 106 -105 146 -5 7 -19 24 -30 39 -136 189 -352 419 -515 547 -412 327
-883 515 -1408 564 -67 6 -349 13 -355 8z m360 -409 c80 -10 167 -24 193 -29
14 -3 40 -9 58 -12 40 -8 39 -11 -26 -101 -71 -97 -211 -341 -200 -347 2 -1
53 -12 113 -24 61 -12 148 -34 196 -49 l85 -28 42 75 c43 76 140 214 199 286
l33 38 77 -38 c171 -84 353 -210 500 -346 l52 -49 -37 -12 c-122 -39 -314
-143 -432 -232 -71 -54 -190 -170 -234 -229 l-28 -37 -36 24 c-171 113 -395
199 -577 222 -118 15 -324 9 -440 -12 -404 -75 -773 -356 -959 -730 -68 -137
-101 -240 -131 -410 -6 -37 -13 -168 -20 -385 -8 -287 -32 -426 -95 -567 -43
-95 -84 -149 -190 -254 -155 -154 -294 -225 -479 -244 l-60 -6 19 65 c16 58
24 103 36 210 5 40 4 327 0 388 -6 70 -15 146 -38 323 -21 153 -32 524 -17
539 3 3 48 -12 99 -34 113 -49 320 -114 331 -103 4 4 10 40 14 78 6 72 40 240
56 282 6 17 5 25 -4 27 -196 59 -322 112 -382 160 l-30 25 34 98 c60 175 227
490 299 562 16 16 6 26 124 -119 47 -58 113 -134 147 -170 52 -56 62 -63 71
-48 8 14 103 131 120 148 3 3 33 35 68 71 l64 66 -82 83 c-77 80 -190 234
-205 280 -8 26 -4 31 137 138 321 244 725 401 1103 428 44 4 81 7 83 9 5 5
302 -3 349 -10z m-46 -1290 c341 -59 621 -294 745 -621 13 -35 25 -73 28 -86
2 -13 9 -43 15 -68 6 -25 11 -59 11 -77 l0 -31 -47 14 c-26 8 -57 16 -68 19
-23 5 -667 178 -940 253 -99 27 -181 49 -182 48 -1 -1 189 -619 255 -828 57
-180 129 -298 245 -404 121 -110 222 -154 612 -269 161 -48 185 -56 186 -68 0
-7 2 -20 4 -30 2 -9 6 -50 10 -90 3 -39 8 -83 10 -97 2 -14 6 -54 10 -90 12
-125 15 -155 20 -190 2 -19 7 -64 10 -100 3 -36 7 -76 10 -88 5 -26 3 -25
-103 40 -34 21 -64 38 -66 38 -2 0 -33 18 -70 40 -218 132 -698 356 -979 456
-190 67 -540 167 -662 188 -16 3 -55 10 -85 16 -30 6 -71 13 -90 16 -19 3 -46
7 -60 10 -14 2 -47 7 -75 10 -27 4 -51 8 -53 9 -2 2 7 23 20 47 53 96 106 247
123 349 3 19 8 45 10 59 7 33 12 79 20 170 11 125 13 168 15 335 1 89 5 181
10 205 5 25 11 59 13 75 19 111 100 280 187 389 150 188 390 328 605 352 28 3
51 7 53 9 9 9 188 2 253 -10z"/>
</g>
</svg>
